<?xml version="1.0" encoding="UTF-8"?>
<svg id="Layer_89" data-name="Layer 89" xmlns="http://www.w3.org/2000/svg" viewBox="0 0 502.3 190.36">
  <defs>
    <style>
      .cls-1 {
        fill: #ffebde;
      }

      .cls-1, .cls-2 {
        stroke-linecap: round;
        stroke-linejoin: round;
      }

      .cls-1, .cls-2, .cls-3, .cls-4, .cls-5, .cls-6 {
        stroke: #570060;
      }

      .cls-2, .cls-3, .cls-4, .cls-5, .cls-6 {
        fill: none;
      }

      .cls-3 {
        stroke-width: 2px;
      }

      .cls-3, .cls-4, .cls-5, .cls-6 {
        stroke-miterlimit: 10;
      }

      .cls-5 {
        stroke-width: 1.86px;
      }

      .cls-7 {
        fill: #570060;
        stroke-width: 0px;
      }

      .cls-6 {
        stroke-width: .25px;
      }
    </style>
  </defs>
  <path class="cls-1" d="M12.49,113.33c-2.41,1.86-4.57,5.86-3.38,8.66,8.7,7.3,13.52-10.74,32.97,6.63,8.14,7.27,15.61,13.12,24.02,21.17,9.56,9.16,20.65,16.55,32.86,21.66,10.2,4.27,21.48,9.22,32.04,12.38,16.4,4.91,33.69,6.85,50.78,5.68-.86-4.07-4.56-7.06-8.54-8.29s-8.23-1.01-12.39-.78c9.88-2.95,22.64-2.74,32.88-3.96,6.67,6.32,15.37,9.36,24.46,10.58,1.37.18,2.76-.01,4.01-.59,51.53-23.92,103.9-46.03,156.99-66.27,6.38-2.43,15.21-6.68,22.02-6.22,6.11.42,9.53,1.84,14.96,4.66,11.61,6.01,21.58,15.74,33.25,21.62,21.69,10.91,58.19,25.61,51.56,16.55-15.13-20.65-17.23-58.48-15.98-84.06,1.12-22.83,6.46-38.14,12.52-58.7.82-2.77-2.21-5.07-4.68-3.57-34.86,21.3-83.83,62.27-93.97,64.1-12.14.17-18.62,0-32.92-.83-12.64-9.31,13.76-6.56,16.29-14.96,1.55-5.15,0-11.64-3.66-14.3-7.42-5.4-7.65-8.65-73.55-21.03-32.2-6.05-51.48-16.21-131.29-22.53-21.01-1.66-46.96,1.45-66.51,9.31C64.78,27.34,22.13,91.05,5.51,102.36c-3.57,2.43-6.97,6.55-3.66,9.31,2.73,2.28,7.87,2.5,10.64,1.66Z"/>
  <path class="cls-4" d="M387.43,116.83c-10.63-2.32-18.1-.07-28.13,4.15s-105.05,41.58-166.22,55.62"/>
  <path class="cls-1" d="M362.66,70.1c-9.31,0-32.4-14.02-38.57-16.63C251.59,22.88,198.88,3.43,121.73,5.42"/>
  <ellipse class="cls-5" cx="97.78" cy="51.48" rx="5.73" ry="5.26"/>
  <ellipse class="cls-3" cx="97.78" cy="51.48" rx="10.25" ry="9.41"/>
  <ellipse class="cls-4" cx="97.78" cy="51.48" rx="16.54" ry="15.18"/>
  <path class="cls-4" d="M86.81,62.9c-7.55,3.8-15.6,7.81-23.15,11.62-5.5,2.77-11.04,5.57-15.97,9.26-2.35,1.76-4.61,3.79-5.92,6.42-1.62,3.25-1.61,7.05-1.29,10.67.45,5.1,1.46,10.15,3.01,15.04-.77.56-1.71-.45-2.11-1.31-2.26-4.88-3.87-10.07-4.78-15.37-.72-4.22-.94-8.77,1.01-12.58,1.56-3.03,4.32-5.24,7.07-7.25,11.52-8.45,24.92-15.58,37.52-22.32"/>
  <path class="cls-4" d="M81.94,47.21c.2-1.88-2.07-3.42-3.72-4.34-4.17-2.32-9.1-3.25-13.83-2.6"/>
  <path class="cls-4" d="M121.73,5.76c-1.21,7.28,5.55,13.5,12.05,16.99,6.5,3.49,13.96,4.9,20.48,8.37.31,1.99-.89,3.95-2.44,5.24s-3.42,2.12-5.12,3.2c-9.06,5.75-11.77,17.6-18.44,26-.71.89-1.52,1.78-2.62,2.08-1.04.29-2.16-.01-3.22.2-3.3.65-3.78,5.2-6.04,7.7-2.84,3.13-7.85,2.45-11.93,1.36-3.85-1.03-7.66-2.19-11.43-3.48-.62-.21-1.28-.46-1.66-1-.87-1.26.49-2.95,1.93-3.47s6.18-1.48,7.32-2.51"/>
  <path class="cls-7" d="M115.91,76.09c-1.49,9.57-4.06,18.95-7.37,28.05-3.96,11.74-10.63,26.28-24.78,27.1-3.25.15-6.6-.63-9.22-2.54,2.74,1.72,6.03,2.36,9.18,2.05,13.77-1.27,19.88-15.49,23.96-26.92,3.37-9.05,6.16-18.29,8.22-27.74h0Z"/>
  <path class="cls-7" d="M153.67,33.93c1.01,6.3-5.1,10.25-9.3,13.72-6.59,5.6-11.09,13.49-12.62,21.98-1.54,8.6,0,17.3-1.01,26.01-1.97,17.42-12.64,33.67-27.93,42.28-3,1.68-7,3.93-10.31,1.81-1.72-1.22-2.72-4.19-.86-5.7-1.17.97-1.11,2.72-.41,3.95,2.5,4.4,8.13,1.57,11.34-.48,14.87-8.76,25.3-24.8,27.18-41.97,1.28-11.39-1.43-23.67,3.79-34.42,2.38-5.35,6.03-10.12,10.53-13.83,4.31-3.39,10.38-7.05,9.62-13.35h0Z"/>
  <path class="cls-2" d="M116.85,131.21c5.98-3.92,11.96-7.84,17.94-11.76,1.08-.71,2.16-1.42,3.24-2.12,14.79-9.69,30.11-19.6,47.52-22.75,8.96-1.62,18.13-1.37,27.23-1.12,2.73.08,6.01.48,7.19,2.95,1.99,4.15-3.12,8.44-5.13,12.58-2.58,5.32-2.78,11.42-3.6,17.27s-2.58,12.05-7.22,15.71c-4.21,3.31-9.89,3.84-15.23,4.18-14.26.9-28.56,1.31-42.85,1.23,1.17-.73,2.35-1.47,3.52-2.2-.29-.51-.95-.78-1.52-.63l3.34-2.95-1.19-1.46c1.71-.43,2.74-2.58,2.01-4.19.67-.53,1.18-1.25,1.45-2.06-.56-.43-1.11-.85-1.67-1.28.28-1.75.57-3.49.85-5.24-1.16-.41-1.89-1.76-1.61-2.95-1.96-1.06-4.14-1.7-6.37-1.85-1.29,0-2.59,0-3.88,0-4.36,1.42-8.6,3.21-12.65,5.35-2.28-.41-4.76.61-6.08,2.52-1.34-.85-3.94-.04-5.29.79Z"/>
  <path class="cls-2" d="M402.3,105.81c1.11,0,2.22-.32,3.18-.9,1.28-.77,2.31-2.01,3.75-2.42,1.65-.46,3.85.12,4.81-1.3.39-.57.43-1.31.78-1.9.79-1.33,2.78-1.4,3.76-2.59.65-.8.71-1.91.67-2.94-.08-2.64-.82-5.67-3.21-6.78-1.63-.76-3.55-.39-5.31-.76-1.58-.34-2.97-1.26-4.45-1.91s-3.27-1-4.67-.19c-1.03.59-1.77,1.76-2.95,1.94-.63.1-1.27-.11-1.9-.06-1.3.11-2.23,1.28-2.98,2.35-.47.66-.94,1.34-1.19,2.11-.44,1.39-.08,2.91.43,4.28.78,2.08,2.04,4.45,3,6.41,1.23,2.51,3.24,4.68,6.27,4.65Z"/>
  <path class="cls-2" d="M387.77,102.72c.3-1.31.06-2.69.14-4.03.11-1.89.86-3.76.49-5.61-.34-1.66-1.52-3-2.66-4.26-.51-.56-1.02-1.13-1.67-1.52-.54-.33-1.16-.53-1.77-.71-3.13-.89-6.41-1.2-9.65-.92-1.2.1-2.41.29-3.55.7-2.37.87-4.26,2.65-6.08,4.4-.87.83-1.75,1.69-2.2,2.8-.72,1.79-.15,3.8.42,5.64.47,1.52,1.27,3.32,2.86,3.45-4.49,2.98,8.63,4.85,9.98,4.87,4.46.08,12.32,1.31,13.69-4.81Z"/>
  <path class="cls-2" d="M163.13,180.01c-7.31,1.85-17,.09-24.5.95-1.97.23-3.91.62-5.88.81-2.72.27-7.34-.26-10.03-.77"/>
  <path class="cls-2" d="M436.48,49.98c-5.86,9.09-1.87,13.19-2.01,24-.02,1.34-.02,2.79-.81,3.88-.56.77-1.44,1.23-2.13,1.9-2.06,2-1.92,5.35-1.15,8.12s2.03,5.52,1.75,8.37c-.33,3.3-2.68,6.06-3.48,9.28-.81,3.24,0,6.63.79,9.87,1.16,4.7,2.33,9.4,3.49,14.11"/>
  <path class="cls-2" d="M487.69,14.24c-2.69,5.61-4.94,9.78-7.62,15.4-1.26,2.64-2.55,5.43-2.31,8.34.12,1.45.62,2.92.25,4.33-.51,1.92-2.45,3.06-3.65,4.64-3.19,4.19-.72,10.31-2.04,15.41-.51,1.97-1.6,3.96-1.02,5.91.38,1.27,1.42,2.26,1.75,3.54.68,2.6-1.72,4.99-2.06,7.66-.36,2.85,1.68,5.47,1.89,8.34.25,3.4-2.09,6.55-2.04,9.95.05,3.51,2.61,6.53,3.12,10,.34,2.31-.26,4.63-.45,6.95-.4,4.89.99,9.74,2.55,14.39,3.22,9.56,7.25,18.86,12.04,27.74"/>
  <path class="cls-6" d="M436.08,56.47c4.57-4.89,9.85-8.8,15.36-12.48,5.56-3.6,11.25-6.89,17.56-9.14-4.56,4.89-9.85,8.81-15.36,12.48-5.57,3.59-11.26,6.89-17.56,9.14h0Z"/>
  <path class="cls-6" d="M434.74,66.65c5.2-4.21,10.98-7.35,16.94-10.23,6.01-2.8,12.1-5.27,18.65-6.62-5.2,4.21-10.97,7.36-16.94,10.23-6.01,2.79-12.1,5.26-18.65,6.62h0Z"/>
  <path class="cls-6" d="M434.34,78.32c5.41-3.94,11.33-6.8,17.43-9.37,6.14-2.49,12.35-4.66,18.96-5.68-5.4,3.95-11.33,6.8-17.43,9.37-6.14,2.48-12.35,4.65-18.96,5.68h0Z"/>
  <path class="cls-6" d="M433.98,88.35c5.73-3.13,11.83-5.15,18.06-6.87,6.26-1.64,12.54-2.95,19.07-3.11-5.73,3.14-11.82,5.15-18.06,6.87-6.26,1.63-12.54,2.94-19.07,3.11h0Z"/>
  <path class="cls-6" d="M433.32,95.55c6.37-1.41,12.79-1.65,19.26-1.58,6.46.17,12.87.65,19.18,2.32-6.37,1.42-12.79,1.66-19.26,1.58-6.46-.17-12.87-.66-19.18-2.32h0Z"/>
  <path class="cls-6" d="M433.69,104.7c6.52-.26,12.88.65,19.23,1.87,6.33,1.31,12.54,2.93,18.46,5.7-6.53.27-12.88-.64-19.23-1.87-6.33-1.32-12.54-2.94-18.46-5.7h0Z"/>
  <path class="cls-6" d="M434.01,115.94c6.53.21,12.8,1.56,19.05,3.24,6.22,1.76,12.3,3.82,18.01,7-6.53-.2-12.8-1.56-19.05-3.24-6.22-1.77-12.3-3.83-18.01-7h0Z"/>
  <path class="cls-6" d="M434.86,126.08c6.44,1.08,12.48,3.26,18.45,5.75,5.93,2.58,11.69,5.42,16.92,9.33-6.44-1.07-12.48-3.25-18.45-5.75-5.93-2.58-11.68-5.43-16.92-9.33h0Z"/>
</svg>